<svg width="46" height="46" viewBox="0 0 46 46" fill="none" xmlns="http://www.w3.org/2000/svg">
<path d="M33.35 41.1579H35.65V35.1053H41.4V32.6842H35.65V26.6316H33.35V32.6842H27.6V35.1053H33.35V41.1579ZM34.5 46C31.3183 46 28.6059 44.8193 26.3626 42.458C24.1193 40.0967 22.9985 37.2422 23 33.8947C23 30.5456 24.1216 27.6904 26.3649 25.3291C28.6082 22.9677 31.3199 21.7879 34.5 21.7895C37.6817 21.7895 40.3941 22.9701 42.6374 25.3315C44.8807 27.6928 46.0015 30.5472 46 33.8947C46 37.2439 44.8784 40.0991 42.6351 42.4604C40.3918 44.8218 37.6801 46.0016 34.5 46ZM13.8 7.26316V2.42106H41.4V7.26316H13.8ZM4.6 38.7368C3.335 38.7368 2.2517 38.2623 1.3501 37.3133C0.448503 36.3642 -0.00152943 35.2247 3.90493e-06 33.8947C3.90493e-06 32.5632 0.450804 31.4228 1.3524 30.4738C2.254 29.5247 3.33654 29.051 4.6 29.0526C5.865 29.0526 6.9483 29.5272 7.8499 30.4762C8.7515 31.4253 9.20154 32.5648 9.2 33.8947C9.2 35.2263 8.7492 36.3666 7.8476 37.3157C6.946 38.2647 5.86347 38.7385 4.6 38.7368ZM4.6 24.2105C3.335 24.2105 2.2517 23.736 1.3501 22.7869C0.448503 21.8379 -0.00152943 20.6984 3.90493e-06 19.3684C3.90493e-06 18.0368 0.450804 16.8965 1.3524 15.9475C2.254 14.9984 3.33654 14.5247 4.6 14.5263C5.865 14.5263 6.9483 15.0008 7.8499 15.9499C8.7515 16.899 9.20154 18.0385 9.2 19.3684C9.2 20.7 8.7492 21.8403 7.8476 22.7894C6.946 23.7384 5.86347 24.2121 4.6 24.2105ZM4.6 9.68421C3.335 9.68421 2.2517 9.20969 1.3501 8.26063C0.448503 7.31158 -0.00152943 6.17207 3.90493e-06 4.84211C3.90493e-06 3.51053 0.450804 2.37021 1.3524 1.42116C2.254 0.472109 3.33654 -0.00160992 4.6 4.11045e-06C5.865 4.11045e-06 6.9483 0.47453 7.8499 1.42358C8.7515 2.37263 9.20154 3.51214 9.2 4.84211C9.2 6.17369 8.7492 7.314 7.8476 8.26306C6.946 9.21211 5.86347 9.68583 4.6 9.68421ZM13.8 36.3158V31.4737H18.5725C18.4575 32.2807 18.4 33.0877 18.4 33.8947C18.4 34.7018 18.4575 35.5088 18.5725 36.3158H13.8ZM13.8 21.7895V16.9474H34.5C32.315 16.9474 30.2642 17.3807 28.3475 18.2475C26.4308 19.1142 24.7442 20.2949 23.2875 21.7895H13.8Z" fill="white"/>
</svg>
