<svg width="226" height="218" viewBox="0 0 226 218" fill="none" xmlns="http://www.w3.org/2000/svg">
<path d="M98.69 162C89.4896 162 80.6661 158.345 74.1605 151.84C67.6548 145.334 64 136.51 64 127.31V56H34.69C25.4896 56 16.6661 59.6548 10.1605 66.1605C3.65483 72.6661 0 81.4896 0 90.69L0 183.31C0 192.51 3.65483 201.334 10.1605 207.84C16.6661 214.345 25.4896 218 34.69 218H127.31C131.866 218 136.376 217.103 140.585 215.359C144.794 213.616 148.618 211.061 151.84 207.84C155.061 204.618 157.616 200.794 159.359 196.585C161.103 192.376 162 187.866 162 183.31V160.2C156.412 161.395 150.714 161.999 145 162H98.69Z" fill="#56BB88"/>
<path d="M145 0H98.69C89.4896 0 80.6661 3.65483 74.1605 10.1605C67.6548 16.6661 64 25.4896 64 34.69V56H127.31C131.866 56 136.376 56.8973 140.585 58.6406C144.794 60.384 148.618 62.9392 151.84 66.1605C155.061 69.3817 157.616 73.2059 159.359 77.4147C161.103 81.6235 162 86.1344 162 90.69V160.2C180.118 156.311 196.354 146.327 208.001 131.914C219.648 117.501 226.001 99.5306 226 81C226 59.5175 217.466 38.9148 202.276 23.7243C187.085 8.5339 166.483 0 145 0Z" fill="#0169D5"/>
</svg>
