<svg width="506" height="218" viewBox="0 0 506 218" fill="none" xmlns="http://www.w3.org/2000/svg">
<g clip-path="url(#clip0_444_1235)">
<path d="M311.622 102.499C306.916 102.499 302.86 101.404 299.452 99.2132C296.085 97.0226 293.529 94.1627 291.785 90.6334C290.041 87.0635 289.168 83.2908 289.168 79.3153C289.168 75.3803 290.041 71.6482 291.785 68.1189C293.529 64.5896 296.085 61.7296 299.452 59.539C302.86 57.3484 306.916 56.2531 311.622 56.2531C316.328 56.2531 320.364 57.3484 323.731 59.539C327.139 61.7296 329.715 64.5896 331.459 68.1189C333.204 71.6482 334.076 75.3803 334.076 79.3153C334.076 83.2908 333.204 87.0635 331.459 90.6334C329.715 94.1627 327.139 97.0226 323.731 99.2132C320.364 101.404 316.328 102.499 311.622 102.499ZM311.622 95.0146C314.502 95.0146 316.997 94.2844 319.107 92.824C321.216 91.3636 322.818 89.4367 323.914 87.0432C325.009 84.6092 325.557 82.0332 325.557 79.3153C325.557 76.5973 325.009 74.0619 323.914 71.709C322.818 69.3156 321.216 67.3887 319.107 65.9283C316.997 64.4679 314.502 63.7377 311.622 63.7377C308.701 63.7377 306.186 64.4679 304.077 65.9283C301.967 67.3887 300.365 69.3156 299.27 71.709C298.215 74.0619 297.687 76.5973 297.687 79.3153C297.687 82.0332 298.215 84.6092 299.27 87.0432C300.365 89.4367 301.967 91.3636 304.077 92.824C306.186 94.2844 308.701 95.0146 311.622 95.0146ZM340.594 101.891V69.6401H348.687V74.2647H349.052C351.04 70.776 354.042 69.0316 358.058 69.0316C361.588 69.0316 364.285 70.1878 366.151 72.5001C368.017 74.7718 368.95 77.6115 368.95 81.0191V101.891H360.857V82.1144C360.857 80.2889 360.35 78.7676 359.336 77.5506C358.362 76.3336 356.922 75.7251 355.016 75.7251C352.906 75.7251 351.324 76.4756 350.269 77.9766C349.215 79.4775 348.687 81.303 348.687 83.4531V101.891H340.594ZM391.826 102.499C388.337 102.499 385.376 101.708 382.942 100.126C380.549 98.5439 378.743 96.475 377.526 93.9193C376.35 91.3636 375.762 88.6456 375.762 85.7654C375.762 82.8851 376.33 80.1875 377.466 77.6723C378.642 75.1166 380.407 73.0477 382.76 71.4656C385.153 69.843 388.074 69.0316 391.522 69.0316C394.483 69.0316 397.08 69.6807 399.311 70.9788C401.542 72.277 403.266 74.2039 404.483 76.7596C405.741 79.2747 406.369 82.3375 406.369 85.9479V88.0168H383.916C384.078 90.3291 384.849 92.256 386.228 93.7976C387.648 95.3391 389.514 96.1099 391.826 96.1099C393.652 96.1099 395.132 95.6839 396.268 94.832C397.404 93.9801 398.195 92.9457 398.641 91.7287H406.126C405.477 94.7306 403.956 97.2863 401.562 99.3958C399.169 101.465 395.923 102.499 391.826 102.499ZM398.581 82.7229C398.459 80.2889 397.729 78.4431 396.39 77.1855C395.092 75.928 393.449 75.2992 391.461 75.2992C389.392 75.2992 387.668 75.9685 386.289 77.3072C384.91 78.6054 384.119 80.4106 383.916 82.7229H398.581Z" fill="#54BB89"/>
<path d="M306.997 116.891C311.663 116.891 315.638 117.966 318.924 120.116C322.251 122.225 324.745 125.004 326.409 128.452C328.072 131.86 328.903 135.511 328.903 139.405C328.903 143.3 328.072 146.971 326.409 150.419C324.745 153.827 322.251 156.606 318.924 158.756C315.638 160.865 311.663 161.92 306.997 161.92H290.811V116.891H306.997ZM306.632 154.618C309.634 154.618 312.19 153.908 314.299 152.488C316.409 151.028 317.991 149.141 319.046 146.829C320.101 144.476 320.628 141.981 320.628 139.345C320.628 136.708 320.101 134.233 319.046 131.921C317.991 129.609 316.409 127.743 314.299 126.323C312.19 124.862 309.634 124.132 306.632 124.132H299.087V154.618H306.632ZM351.002 162.528C347.513 162.528 344.552 161.737 342.118 160.155C339.724 158.573 337.919 156.504 336.702 153.949C335.526 151.393 334.938 148.675 334.938 145.795C334.938 142.914 335.506 140.217 336.641 137.702C337.818 135.146 339.582 133.077 341.935 131.495C344.329 129.872 347.25 129.061 350.698 129.061C353.659 129.061 356.255 129.71 358.487 131.008C360.718 132.306 362.442 134.233 363.659 136.789C364.916 139.304 365.545 142.367 365.545 145.977V148.046H343.092C343.254 150.358 344.025 152.285 345.404 153.827C346.824 155.368 348.69 156.139 351.002 156.139C352.828 156.139 354.308 155.713 355.444 154.861C356.58 154.009 357.371 152.975 357.817 151.758H365.302C364.653 154.76 363.131 157.316 360.738 159.425C358.345 161.494 355.099 162.528 351.002 162.528ZM357.756 142.752C357.635 140.318 356.904 138.472 355.566 137.215C354.268 135.957 352.625 135.328 350.637 135.328C348.568 135.328 346.844 135.998 345.465 137.337C344.085 138.635 343.294 140.44 343.092 142.752H357.756ZM388.513 174.82C383.807 174.82 380.176 173.745 377.621 171.595C375.105 169.486 373.625 166.91 373.179 163.867H381.089C381.414 165.125 382.184 166.179 383.401 167.031C384.618 167.883 386.302 168.309 388.452 168.309C391.129 168.309 393.137 167.538 394.476 165.997C395.815 164.496 396.484 162.488 396.484 159.973V156.383H396.119C395.308 157.762 394.07 158.979 392.407 160.034C390.784 161.048 388.716 161.555 386.2 161.555C383.158 161.555 380.541 160.784 378.351 159.243C376.201 157.701 374.578 155.693 373.483 153.218C372.387 150.744 371.84 148.107 371.84 145.308C371.84 142.509 372.387 139.872 373.483 137.397C374.578 134.923 376.201 132.915 378.351 131.373C380.541 129.832 383.158 129.061 386.2 129.061C388.716 129.061 390.784 129.588 392.407 130.643C394.03 131.657 395.267 132.834 396.119 134.172H396.484V129.669H404.577V159.912C404.577 162.792 403.969 165.348 402.752 167.579C401.575 169.81 399.77 171.575 397.336 172.873C394.943 174.171 392.001 174.82 388.513 174.82ZM388.33 155.044C390.075 155.044 391.555 154.598 392.772 153.705C394.03 152.772 394.963 151.555 395.571 150.054C396.22 148.553 396.545 146.971 396.545 145.308C396.545 142.63 395.815 140.338 394.354 138.432C392.934 136.525 390.926 135.572 388.33 135.572C385.693 135.572 383.645 136.545 382.184 138.493C380.724 140.399 379.994 142.671 379.994 145.308C379.994 146.971 380.298 148.553 380.906 150.054C381.556 151.555 382.509 152.772 383.766 153.705C385.065 154.598 386.586 155.044 388.33 155.044ZM412.141 161.92V129.669H420.173V134.111H420.477C422.019 130.744 424.899 129.061 429.118 129.061C430.132 129.061 431.065 129.162 431.917 129.365V137.215C430.984 137.053 429.97 136.971 428.874 136.971C425.954 136.971 423.783 137.783 422.363 139.405C420.944 140.988 420.234 143.523 420.234 147.012V161.92H412.141ZM451.309 162.528C447.821 162.528 444.859 161.737 442.425 160.155C440.032 158.573 438.227 156.504 437.01 153.949C435.833 151.393 435.245 148.675 435.245 145.795C435.245 142.914 435.813 140.217 436.949 137.702C438.125 135.146 439.89 133.077 442.243 131.495C444.636 129.872 447.557 129.061 451.005 129.061C453.967 129.061 456.563 129.71 458.794 131.008C461.025 132.306 462.749 134.233 463.966 136.789C465.224 139.304 465.853 142.367 465.853 145.977V148.046H443.399C443.561 150.358 444.332 152.285 445.711 153.827C447.131 155.368 448.997 156.139 451.309 156.139C453.135 156.139 454.616 155.713 455.751 154.861C456.887 154.009 457.678 152.975 458.125 151.758H465.609C464.96 154.76 463.439 157.316 461.045 159.425C458.652 161.494 455.407 162.528 451.309 162.528ZM458.064 142.752C457.942 140.318 457.212 138.472 455.873 137.215C454.575 135.957 452.932 135.328 450.944 135.328C448.875 135.328 447.151 135.998 445.772 137.337C444.393 138.635 443.602 140.44 443.399 142.752H458.064ZM488.212 162.528C484.723 162.528 481.762 161.737 479.328 160.155C476.934 158.573 475.129 156.504 473.912 153.949C472.735 151.393 472.147 148.675 472.147 145.795C472.147 142.914 472.715 140.217 473.851 137.702C475.027 135.146 476.792 133.077 479.145 131.495C481.538 129.872 484.459 129.061 487.907 129.061C490.869 129.061 493.465 129.71 495.696 131.008C497.927 132.306 499.651 134.233 500.868 136.789C502.126 139.304 502.755 142.367 502.755 145.977V148.046H480.301C480.463 150.358 481.234 152.285 482.613 153.827C484.033 155.368 485.899 156.139 488.212 156.139C490.037 156.139 491.518 155.713 492.654 154.861C493.79 154.009 494.581 152.975 495.027 151.758H502.511C501.862 154.76 500.341 157.316 497.948 159.425C495.554 161.494 492.309 162.528 488.212 162.528ZM494.966 142.752C494.844 140.318 494.114 138.472 492.775 137.215C491.477 135.957 489.834 135.328 487.847 135.328C485.778 135.328 484.054 135.998 482.674 137.337C481.295 138.635 480.504 140.44 480.301 142.752H494.966Z" fill="#0169D5"/>
<path d="M98.69 162C89.4896 162 80.6661 158.345 74.1605 151.84C67.6548 145.334 64 136.51 64 127.31V56H34.69C25.4896 56 16.6661 59.6548 10.1605 66.1605C3.65483 72.6661 0 81.4896 0 90.69L0 183.31C0 192.51 3.65483 201.334 10.1605 207.84C16.6661 214.345 25.4896 218 34.69 218H127.31C131.866 218 136.376 217.103 140.585 215.359C144.794 213.616 148.618 211.061 151.84 207.84C155.061 204.618 157.616 200.794 159.359 196.585C161.103 192.376 162 187.866 162 183.31V160.2C156.412 161.395 150.714 161.999 145 162H98.69Z" fill="#56BB88"/>
<path d="M145 0H98.69C89.4896 0 80.6661 3.65483 74.1605 10.1605C67.6548 16.6661 64 25.4896 64 34.69V56H127.31C131.866 56 136.376 56.8973 140.585 58.6406C144.794 60.384 148.618 62.9392 151.84 66.1605C155.061 69.3817 157.616 73.2059 159.359 77.4147C161.103 81.6235 162 86.1344 162 90.69V160.2C180.118 156.311 196.354 146.327 208.001 131.914C219.648 117.501 226.001 99.5306 226 81C226 59.5175 217.466 38.9148 202.276 23.7243C187.085 8.5339 166.483 0 145 0Z" fill="#0169D5"/>
</g>
<defs>
<clipPath id="clip0_444_1235">
<rect width="505.97" height="218" fill="white"/>
</clipPath>
</defs>
</svg>
