<svg width="45" height="45" viewBox="0 0 45 45" fill="none" xmlns="http://www.w3.org/2000/svg">
<path d="M29.9919 35.625H14.7459C14.5604 34.9675 14.2897 34.3371 13.9405 33.75L33.7378 13.9313C34.8653 14.6239 36.161 14.9935 37.4838 15C38.8861 15.0046 40.2614 14.6151 41.4535 13.8758C42.6456 13.1365 43.6065 12.0772 44.2269 10.8183C44.8473 9.55934 45.1023 8.15139 44.9629 6.75455C44.8235 5.35772 44.2953 4.02809 43.4384 2.9169C42.5815 1.80572 41.4303 0.957592 40.1157 0.468999C38.8011 -0.0195936 37.3759 -0.129038 36.0023 0.153116C34.6286 0.43527 33.3616 1.09769 32.3455 2.06504C31.3293 3.03238 30.6047 4.26581 30.2541 5.62502H14.7459C14.29 3.85753 13.2059 2.31716 11.6967 1.29264C10.1875 0.268117 8.35683 -0.170219 6.54788 0.0597955C4.73894 0.28981 3.07589 1.17238 1.87047 2.54208C0.665041 3.91178 0 5.67457 0 7.50001C0 9.32547 0.665041 11.0883 1.87047 12.4579C3.07589 13.8276 4.73894 14.7102 6.54788 14.9402C8.35683 15.1702 10.1875 14.7319 11.6967 13.7074C13.2059 12.6829 14.29 11.1425 14.7459 9.37501H30.2541C30.4396 10.0326 30.7104 10.6629 31.0595 11.25L11.2622 31.0688C10.1347 30.3761 8.83902 30.0065 7.51621 30C6.11395 29.9955 4.73856 30.385 3.5465 31.1242C2.35443 31.8635 1.39354 32.9228 0.773142 34.1818C0.15274 35.4407 -0.102272 36.8486 0.0371138 38.2455C0.176499 39.6423 0.704687 40.9719 1.5616 42.0831C2.4185 43.1943 3.56973 44.0424 4.88432 44.531C6.19891 45.0196 7.62409 45.1291 8.99774 44.8469C10.3714 44.5648 11.6384 43.9023 12.6545 42.935C13.6707 41.9676 14.3953 40.7342 14.7459 39.375H29.9919V45H44.9757V30H29.9919V35.625ZM7.51621 11.25C6.77533 11.25 6.05109 11.0301 5.43508 10.618C4.81906 10.206 4.33893 9.6203 4.05541 8.93508C3.77189 8.24985 3.6977 7.49586 3.84224 6.76843C3.98678 6.041 4.34355 5.37281 4.86743 4.84837C5.39131 4.32392 6.05877 3.96677 6.78541 3.82207C7.51206 3.67738 8.26524 3.75164 8.94972 4.03547C9.63421 4.3193 10.2192 4.79994 10.6309 5.41663C11.0425 6.03331 11.2622 6.75834 11.2622 7.50001C11.2622 8.49458 10.8675 9.4484 10.165 10.1517C9.4625 10.8549 8.5097 11.25 7.51621 11.25ZM37.4838 3.75002C38.2247 3.75002 38.9489 3.96995 39.5649 4.38201C40.181 4.79406 40.6611 5.37973 40.9446 6.06495C41.2281 6.75017 41.3023 7.50417 41.1578 8.2316C41.0132 8.95903 40.6565 9.62722 40.1326 10.1517C39.6087 10.6761 38.9412 11.0333 38.2146 11.178C37.4879 11.3227 36.7348 11.2484 36.0503 10.9646C35.3658 10.6807 34.7808 10.2001 34.3692 9.5834C33.9575 8.96672 33.7378 8.24169 33.7378 7.50001C33.7378 6.50545 34.1325 5.55163 34.835 4.84837C35.5375 4.1451 36.4903 3.75002 37.4838 3.75002ZM7.51621 41.25C6.77533 41.25 6.05109 41.0301 5.43508 40.618C4.81906 40.206 4.33893 39.6203 4.05541 38.9351C3.77189 38.2498 3.6977 37.4958 3.84224 36.7684C3.98678 36.041 4.34355 35.3728 4.86743 34.8484C5.39131 34.3239 6.05877 33.9668 6.78541 33.8221C7.51206 33.6774 8.26524 33.7516 8.94972 34.0355C9.63421 34.3193 10.2192 34.7999 10.6309 35.4166C11.0425 36.0333 11.2622 36.7583 11.2622 37.5C11.2622 38.4946 10.8675 39.4484 10.165 40.1517C9.4625 40.8549 8.5097 41.25 7.51621 41.25ZM33.7378 33.75H41.2297V41.25H33.7378V33.75Z" fill="#0069D5"/>
</svg>
