<svg width="48" height="50" viewBox="0 0 48 50" fill="none" xmlns="http://www.w3.org/2000/svg">
<path d="M28.8761 0C29.2485 1.17357e-05 29.6113 0.118221 29.9122 0.337605C30.2132 0.556988 30.4367 0.866224 30.5507 1.22078L32.4856 7.23319C33.2983 7.63073 34.0758 8.07753 34.8181 8.58062L40.9959 7.25078C41.3601 7.17301 41.7397 7.21287 42.0798 7.36461C42.4199 7.51634 42.7032 7.77213 42.8886 8.09512L47.7647 16.535C47.9509 16.8578 48.0298 17.2314 47.9899 17.6019C47.9501 17.9725 47.7936 18.3208 47.5431 18.5966L43.3038 23.2757C43.3655 24.1729 43.3655 25.0733 43.3038 25.9705L47.5431 30.6566C47.7936 30.9325 47.9501 31.2808 47.9899 31.6513C48.0298 32.0218 47.9509 32.3954 47.7647 32.7182L42.8886 41.1616C42.7026 41.484 42.4192 41.739 42.0791 41.8901C41.739 42.0412 41.3598 42.0806 40.9959 42.0025L34.8181 40.6726C34.0793 41.1722 33.2983 41.6225 32.4892 42.0201L30.5507 48.0325C30.4367 48.387 30.2132 48.6963 29.9122 48.9156C29.6113 49.135 29.2485 49.2532 28.8761 49.2532H19.1239C18.7515 49.2532 18.3887 49.135 18.0878 48.9156C17.7868 48.6963 17.5633 48.387 17.4493 48.0325L15.5179 42.0236C14.7074 41.6272 13.9256 41.1746 13.1784 40.6691L7.00411 42.0025C6.63987 42.0802 6.26034 42.0404 5.92019 41.8886C5.58005 41.7369 5.29685 41.4811 5.11138 41.1581L0.23531 32.7182C0.049113 32.3954 -0.0297541 32.0218 0.0100802 31.6513C0.0499145 31.2808 0.206392 30.9325 0.456949 30.6566L4.69625 25.9705C4.63484 25.0756 4.63484 24.1776 4.69625 23.2827L0.456949 18.5966C0.206392 18.3208 0.0499145 17.9725 0.0100802 17.6019C-0.0297541 17.2314 0.049113 16.8578 0.23531 16.535L5.11138 8.0916C5.29736 7.76926 5.58078 7.5142 5.92088 7.36311C6.26099 7.21202 6.64024 7.1727 7.00411 7.25078L13.1784 8.58414C13.9242 8.08105 14.7052 7.62722 15.5179 7.22967L17.4528 1.22078C17.5664 0.867366 17.7889 0.558949 18.0884 0.339671C18.388 0.120394 18.7492 0.00149754 19.1204 0H28.8726H28.8761ZM27.5885 3.51809H20.4115L18.4133 9.73455L17.0658 10.3924C16.4035 10.7166 15.764 11.0857 15.152 11.4971L13.9066 12.3415L7.51775 10.9624L3.9293 17.1823L8.30932 22.0303L8.20378 23.5219C8.15323 24.2575 8.15323 24.9957 8.20378 25.7313L8.30932 27.223L3.92227 32.0709L7.51424 38.2909L13.9031 36.9153L15.1485 37.7561C15.7605 38.1676 16.3999 38.5367 17.0623 38.8608L18.4098 39.5187L20.4115 45.7352H27.5955L29.6008 39.5152L30.9447 38.8608C31.6064 38.5374 32.2447 38.1683 32.855 37.7561L34.0969 36.9153L40.4893 38.2909L44.0777 32.0709L39.6942 27.223L39.7997 25.7313C39.8504 24.9945 39.8504 24.2552 39.7997 23.5184L39.6942 22.0268L44.0813 17.1823L40.4893 10.9624L34.0969 12.3344L32.855 11.4971C32.2448 11.0848 31.6064 10.7157 30.9447 10.3924L29.6008 9.73807L27.592 3.51809H27.5885ZM24 14.0724C26.7992 14.0724 29.4837 15.1843 31.463 17.1636C33.4423 19.1429 34.5543 21.8275 34.5543 24.6266C34.5543 27.4258 33.4423 30.1103 31.463 32.0896C29.4837 34.0689 26.7992 35.1809 24 35.1809C21.2008 35.1809 18.5163 34.0689 16.537 32.0896C14.5577 30.1103 13.4457 27.4258 13.4457 24.6266C13.4457 21.8275 14.5577 19.1429 16.537 17.1636C18.5163 15.1843 21.2008 14.0724 24 14.0724ZM24 17.5904C22.1339 17.5904 20.3442 18.3318 19.0247 19.6513C17.7051 20.9708 16.9638 22.7605 16.9638 24.6266C16.9638 26.4927 17.7051 28.2824 19.0247 29.6019C20.3442 30.9215 22.1339 31.6628 24 31.6628C25.8661 31.6628 27.6558 30.9215 28.9753 29.6019C30.2949 28.2824 31.0362 26.4927 31.0362 24.6266C31.0362 22.7605 30.2949 20.9708 28.9753 19.6513C27.6558 18.3318 25.8661 17.5904 24 17.5904Z" fill="#0069D5"/>
</svg>
